<?xml version="1.0" encoding="UTF-8" standalone="no"?>
<!-- Created with Inkscape (http://www.inkscape.org/) -->

<svg
   version="1.1"
   id="svg1"
   width="439.39035"
   height="511.45135"
   viewBox="0 0 439.39035 511.45135"
   xmlns="http://www.w3.org/2000/svg"
   xmlns:svg="http://www.w3.org/2000/svg">
  <defs
     id="defs1" />
  <g
     id="g1"
     transform="translate(-36.490532,-0.5)">
    <g
       id="g9">
      <path
         style="fill:#f5eeee"
         d="m 42.872445,505.25 c -1.243871,-1.58606 -1.208501,-1.62143 0.377555,-0.37756 0.9625,0.75485 1.75,1.54235 1.75,1.75 0,0.82304 -0.821186,0.29331 -2.127555,-1.37244 z M 88.666667,455.33333 C 88.3,454.96667 88,369.24167 88,264.83333 V 75 h 23.86071 23.86071 l 0.61511,5.193681 c 0.8079,6.821408 5.00677,13.520699 10.16347,16.215775 3.93976,2.059062 5.12679,2.09459 78.82379,2.359219 49.72568,0.178554 76.1255,-0.08184 78.70453,-0.7763 C 311.98716,95.849281 317.93355,87.859917 317.97804,79.25 L 318,75 h 24.5 24.5 v 58.54545 58.54546 l 2.45455,2.45454 c 1.35,1.35 3.15,2.45455 4,2.45455 1.28303,0 1.54545,1.57742 1.54545,9.28973 v 9.28972 L 298.88884,310.53973 222.77769,405.5 210.14796,430.75 197.51823,456 h -54.09245 c -29.75084,0 -54.392447,-0.3 -54.759113,-0.66667 z m 64.672203,-48.27207 c 1.35799,-0.51631 3.40209,-1.94022 4.54245,-3.16425 3.29294,-3.53455 25.93547,-36.28493 26.97314,-39.01421 0.64358,-1.69273 0.53457,-3.43058 -0.34663,-5.52635 C 183.1037,356.01702 181.34753,355 176.98516,355 c -3.40701,0 -5.36862,2.28132 -19.4979,22.67577 l -9.82098,14.17578 -8.23578,-7.32749 c -4.52967,-4.03011 -9.17234,-7.62474 -10.31704,-7.98805 -5.02228,-1.59401 -11.07675,4.80014 -9.20549,9.72194 0.91641,2.41033 15.70721,16.52877 20.91194,19.96133 2.93036,1.9326 8.64034,2.31663 12.51896,0.84198 z m 1.76325,-109.34436 c 3.36698,-2.26233 26.8645,-34.3601 29.38985,-40.14673 C 186.93942,251.96206 183.48468,247 177.13269,247 c -3.57835,0 -5.36185,2.05861 -19.64543,22.67577 l -9.82098,14.17578 -8.23578,-7.32749 c -4.52967,-4.03011 -9.17234,-7.62474 -10.31704,-7.98805 -4.98931,-1.58355 -11.07716,4.79907 -9.22472,9.67136 1.04359,2.74483 17.43308,18.0367 21.73717,20.2814 4.18607,2.18314 9.53422,1.87682 13.47621,-0.77187 z m 124.44333,-3.17145 c 3.1087,-3.10869 3.12295,-6.65686 0.0411,-10.23969 L 277.17317,281.5 h -29.4816 c -27.12764,0 -29.64249,0.1456 -31.49665,1.8236 -1.10827,1.00297 -2.29007,2.91936 -2.6262,4.25863 -0.6578,2.62088 1.5508,7.89975 3.66024,8.74848 0.69907,0.28127 14.45399,0.54692 30.56649,0.59034 L 277.09091,297 Z m 53.54334,-33.40623 c 2.44081,-3.01497 2.44081,-7.26347 0,-10.27844 l -1.9112,-2.36078 -56.00485,-0.27425 -56.00484,-0.27424 -2.75061,2.36598 c -1.97232,1.69652 -2.75062,3.30441 -2.75062,5.68251 0,2.3781 0.7783,3.98599 2.75062,5.68251 l 2.75061,2.36598 56.00484,-0.27424 L 331.17759,263.5 Z M 153.57294,189.1062 c 3.47596,-1.57873 6.08749,-4.73059 17.81762,-21.50411 15.17173,-21.69484 16.10813,-24.05606 11.21059,-28.26874 -3.42306,-2.94439 -7.05734,-2.97494 -9.91797,-0.0833 -1.22426,1.2375 -7.31399,9.56626 -13.53274,18.50835 l -11.30683,16.25835 -3.28169,-2.75835 c -1.80493,-1.51709 -5.75576,-4.89585 -8.77962,-7.50835 -7.31296,-6.31812 -12.73627,-6.46738 -15.27879,-0.42051 -1.98879,4.72994 -0.29759,7.58285 9.61378,16.21766 10.50102,9.1485 11.69684,10.03952 14.38271,10.71664 3.5624,0.8981 4.93144,0.72342 9.07294,-1.15759 z m 178.97251,-1.56075 c 3.99557,-3.99556 2.98555,-9.60445 -2.22971,-12.38211 -3.26872,-1.74093 -108.85839,-1.61809 -112.31574,0.13067 -3.05684,1.54617 -5.35078,6.02541 -4.48416,8.75591 0.35223,1.10976 1.59011,2.90251 2.75085,3.98391 2.0461,1.90624 3.81303,1.96617 57.96733,1.96617 h 55.85689 z m -2.22971,-31.70879 c 5.21526,-2.77766 6.22528,-8.38655 2.22971,-12.38211 L 330.09091,141 h -54.9984 c -38.74587,0 -55.73111,0.33384 -57.47787,1.12972 -3.58709,1.63439 -5.1587,5.96314 -3.45501,9.5163 0.7372,1.5375 2.46537,3.36449 3.84037,4.05997 3.45735,1.74876 109.04702,1.8716 112.31574,0.13067 z m -73.24103,299.76069 c 0.23391,-0.23095 3.4288,-2.82233 7.09976,-5.75863 5.20862,-4.16623 18.0259,-19.50426 58.36097,-69.83872 28.42757,-35.475 51.86156,-64.6875 52.07553,-64.91667 0.21397,-0.22916 0.38903,3.71947 0.38903,8.77475 0,8.61022 -0.14227,9.24583 -2.25,10.05191 -1.2375,0.47327 -3.03384,1.73102 -3.99187,2.795 -1.60742,1.7852 -1.76179,6.4444 -2,60.36476 L 366.5,455.5 l -54.92529,0.25862 c -30.20891,0.14224 -54.73391,0.0697 -54.5,-0.16127 z M 422.5,156 c 0.99549,-1.1 2.03498,-2 2.30998,-2 0.275,0 -0.31449,0.9 -1.30998,2 -0.99549,1.1 -2.03498,2 -2.30998,2 -0.275,0 0.31449,-0.9 1.30998,-2 z M 309.87244,46.25 C 308.62857,44.663944 308.66394,44.628574 310.25,45.872445 311.91575,47.178814 312.44548,48 311.62244,48 c -0.20765,0 -0.99515,-0.7875 -1.75,-1.75 z"
         id="path18" />
      <path
         style="fill:#fdc1a9"
         d="m 87.48973,264 c 0,-104.225 0.117094,-146.8625 0.260209,-94.75 0.143116,52.1125 0.143116,137.3875 0,189.5 -0.143115,52.1125 -0.260209,9.475 -0.260209,-94.75 z m 146.82006,17.25205 c 7.59538,-0.1701 19.74538,-0.16966 27,9.7e-4 7.25461,0.17063 1.04021,0.3098 -13.80979,0.30926 -14.85,-5.3e-4 -20.7856,-0.14014 -13.19021,-0.31023 z M 422.24144,205.97399 C 416.05865,201.00968 411,196.68297 411,196.35909 c 0,-0.90623 21.46454,-27.53841 24.41766,-30.29627 3.68548,-3.4418 12.71906,-4.02893 17.34148,-1.1271 6.21428,3.90116 8.85479,11.68913 6.26906,18.49011 C 457.99649,186.13944 435.24318,215 434.13552,215 c -0.35896,0 -5.71129,-4.06171 -11.89408,-9.02601 z M 146.75,190.33772 c 0.6875,-0.27741 1.8125,-0.27741 2.5,0 0.6875,0.27741 0.125,0.50439 -1.25,0.50439 -1.375,0 -1.9375,-0.22698 -1.25,-0.50439 z M 141.87244,93.25 C 140.62857,91.663944 140.66394,91.628574 142.25,92.872445 143.91575,94.178814 144.44548,95 143.62244,95 c -0.20765,0 -0.99515,-0.7875 -1.75,-1.75 z"
         id="path17" />
      <path
         style="fill:#949292"
         d="m 409,506.62244 c 0,-0.20765 0.7875,-0.99515 1.75,-1.75 1.58606,-1.24387 1.62143,-1.2085 0.37756,0.37756 C 409.82119,506.91575 409,507.44548 409,506.62244 Z M 36.490532,285.5 c 1.2e-5,-113.3 0.116755,-159.5016 0.259428,-102.67022 0.142673,56.83137 0.142663,149.53137 -2.3e-5,206 C 36.607252,445.2984 36.490519,398.8 36.490532,285.5 Z m 79.688888,170.75084 c 14.67368,-0.15578 38.97368,-0.15591 54,-2.9e-4 15.02632,0.15563 3.02058,0.28309 -26.67942,0.28324 -29.7,1.6e-4 -41.99426,-0.12717 -27.32058,-0.28295 z M 282.75,456.25068 c 14.9875,-0.15555 39.5125,-0.15555 54.5,0 14.9875,0.15556 2.725,0.28283 -27.25,0.28283 -29.975,0 -42.2375,-0.12727 -27.25,-0.28283 z M 136.87244,403.25 c -1.24387,-1.58606 -1.2085,-1.62143 0.37756,-0.37756 1.66575,1.30637 2.19548,2.12756 1.37244,2.12756 -0.20765,0 -0.99515,-0.7875 -1.75,-1.75 z m -1,-109 c -1.24387,-1.58606 -1.2085,-1.62143 0.37756,-0.37756 0.9625,0.75485 1.75,1.54235 1.75,1.75 0,0.82304 -0.82119,0.29331 -2.12756,-1.37244 z m -9,-8 c -1.24387,-1.58606 -1.2085,-1.62143 0.37756,-0.37756 0.9625,0.75485 1.75,1.54235 1.75,1.75 0,0.82304 -0.82119,0.29331 -2.12756,-1.37244 z m -0.0599,-17.93311 c 0.72187,-0.28887 1.58437,-0.25335 1.91667,0.0789 0.33229,0.33229 -0.25834,0.56864 -1.3125,0.52522 -1.16495,-0.048 -1.4019,-0.28494 -0.60417,-0.60416 z M 246.25,248.25066 c 15.2625,-0.15526 40.2375,-0.15526 55.5,0 15.2625,0.15526 2.775,0.28229 -27.75,0.28229 -30.525,0 -43.0125,-0.12703 -27.75,-0.28229 z M 368.87244,194.25 c -1.24387,-1.58606 -1.2085,-1.62143 0.37756,-0.37756 1.66575,1.30637 2.19548,2.12756 1.37244,2.12756 -0.20765,0 -0.99515,-0.7875 -1.75,-1.75 z M 331,188.62244 c 0,-0.20765 0.7875,-0.99515 1.75,-1.75 1.58606,-1.24387 1.62143,-1.2085 0.37756,0.37756 C 331.82119,188.91575 331,189.44548 331,188.62244 Z m -175,-1 c 0,-0.20765 0.7875,-0.99515 1.75,-1.75 1.58606,-1.24387 1.62143,-1.2085 0.37756,0.37756 C 156.82119,187.91575 156,188.44548 156,187.62244 Z M 130.87244,180.25 c -1.24387,-1.58606 -1.2085,-1.62143 0.37756,-0.37756 0.9625,0.75485 1.75,1.54235 1.75,1.75 0,0.82304 -0.82119,0.29331 -2.12756,-1.37244 z m 344.37974,-2.75 c 0.0111,-2.2 0.21589,-2.98225 0.45508,-1.73834 0.23919,1.24391 0.23011,3.04391 -0.0202,4 -0.25029,0.95609 -0.446,-0.0617 -0.4349,-2.26166 z M 246.75,174.25068 c 14.9875,-0.15555 39.5125,-0.15555 54.5,0 14.9875,0.15556 2.725,0.28283 -27.25,0.28283 -29.975,0 -42.2375,-0.12727 -27.25,-0.28283 z M 121.87244,172.25 c -1.24387,-1.58606 -1.2085,-1.62143 0.37756,-0.37756 0.9625,0.75485 1.75,1.54235 1.75,1.75 0,0.82304 -0.82119,0.29331 -2.12756,-1.37244 z M 433.5,167 c 0.99549,-1.1 2.03498,-2 2.30998,-2 0.275,0 -0.31449,0.9 -1.30998,2 -0.99549,1.1 -2.03498,2 -2.30998,2 -0.275,0 0.31449,-0.9 1.30998,-2 z m 10.25,-4.66228 c 0.6875,-0.27741 1.8125,-0.27741 2.5,0 0.6875,0.27741 0.125,0.50439 -1.25,0.50439 -1.375,0 -1.9375,-0.22698 -1.25,-0.50439 z m -197,-6.08704 c 14.9875,-0.15555 39.5125,-0.15555 54.5,0 14.9875,0.15556 2.725,0.28283 -27.25,0.28283 -29.975,0 -42.2375,-0.12727 -27.25,-0.28283 z M 331.87244,143.25 c -1.24387,-1.58606 -1.2085,-1.62143 0.37756,-0.37756 0.9625,0.75485 1.75,1.54235 1.75,1.75 0,0.82304 -0.82119,0.29331 -2.12756,-1.37244 z M 171,140.62244 c 0,-0.20765 0.7875,-0.99515 1.75,-1.75 1.58606,-1.24387 1.62143,-1.2085 0.37756,0.37756 C 171.82119,140.91575 171,141.44548 171,140.62244 Z m 19.32394,-42.372147 c 20.80316,-0.150968 54.55316,-0.150898 75,1.56e-4 20.44683,0.151054 3.42606,0.274573 -37.82394,0.274488 -41.25,-8.6e-5 -57.97923,-0.123675 -37.17606,-0.274644 z M 136.232,78 c 0,-1.925 0.2058,-2.7125 0.45733,-1.75 0.25152,0.9625 0.25152,2.5375 0,3.5 C 136.4378,80.7125 136.232,79.925 136.232,78 Z M 42,67.622445 c 0,-0.207656 0.7875,-0.995156 1.75,-1.75 C 45.336056,64.628574 45.371426,64.663944 44.127555,66.25 42.821186,67.915748 42,68.445479 42,67.622445 Z M 77.183398,59.251472 C 88.009267,59.090153 106.00927,59.089932 117.1834,59.250981 128.35753,59.41203 119.5,59.544018 97.5,59.544288 75.5,59.544559 66.357529,59.412791 77.183398,59.251472 Z M 336.75,59.251193 c 11.1375,-0.160932 29.3625,-0.160932 40.5,0 11.1375,0.160932 2.025,0.292604 -20.25,0.292604 -22.275,0 -31.3875,-0.131672 -20.25,-0.292604 z M 171.28017,35.263728 c 2.6291,-0.206676 6.6791,-0.204183 9,0.0055 2.32091,0.209724 0.16983,0.378823 -4.78017,0.375776 -4.95,-0.003 -6.84892,-0.17464 -4.21983,-0.381317 z m 104,0 c 2.6291,-0.206676 6.6791,-0.204183 9,0.0055 2.32091,0.209724 0.16983,0.378823 -4.78017,0.375776 -4.95,-0.003 -6.84892,-0.17464 -4.21983,-0.381317 z m -8.20122,-4.847061 c 0.048,-1.164943 0.28494,-1.4019 0.60416,-0.604167 0.28887,0.721875 0.25335,1.584375 -0.0789,1.916667 -0.33229,0.332291 -0.56864,-0.258334 -0.52522,-1.3125 z"
         id="path16" />
      <path
         style="fill:#fb7c40"
         d="m 153.2,81.8 c -0.73551,-0.735512 -1.2,-4.330691 -1.2,-9.28811 0,-10.190038 2.52087,-15.896501 8.5,-19.241323 3.44522,-1.927311 5.49544,-2.239948 14.78212,-2.254117 12.11973,-0.01849 16.26155,-1.224411 21.44904,-6.245041 3.44305,-3.332291 4.72633,-6.451662 5.73817,-13.948146 1.20588,-8.934076 6.80768,-14.415393 15.78067,-15.441246 l 5.75,-0.65738 v 15.989798 c 0,14.995635 0.14205,16.201061 2.28463,19.387682 3.06136,4.553099 7.15174,5.769589 19.71537,5.863403 11.94305,0.08918 16.37715,1.552758 21.69932,7.162368 C 271.82088,67.472051 274,72.777462 274,78.467881 V 83 h -59.8 c -45.17778,0 -60.09342,-0.293423 -61,-1.2 z"
         id="path15" />
      <path
         style="fill:#f8672f"
         d="m 252.38724,418.11639 -12.11275,-9.70112 79.89938,-99.70764 C 364.11853,253.86843 400.39812,209 400.79519,209 c 1.86908,0 23.30589,18.29421 22.8448,19.49579 -0.27958,0.72857 -36.15037,45.80257 -79.71286,100.16444 -43.56249,54.36187 -79.25462,98.91121 -79.31583,98.99852 -0.0612,0.0873 -5.56204,-4.20675 -12.22406,-9.54236 z M 274,78.467881 c 0,-5.690419 -2.17912,-10.99583 -6.30068,-15.339993 C 262.37715,57.518278 257.94305,56.054699 246,55.96552 233.43637,55.871706 229.34599,54.655216 226.28463,50.102117 224.14261,46.91634 224,45.708484 224,30.752619 V 14.801004 l 8.92836,0.349498 c 7.12982,0.279095 9.49676,0.770902 11.75,2.441446 4.09145,3.033378 7.3208,8.236649 7.32722,11.805935 0.0106,5.879229 2.16397,11.03482 6.36284,15.233696 5.15101,5.151008 9.31252,6.355671 21.98045,6.362844 11.69165,0.0066 15.60257,1.463979 19.42363,7.237986 2.12629,3.213036 2.67229,5.411089 3.0281,12.190195 C 303.46917,83.160399 303.66475,83 287.46482,83 H 274 Z M 206.5,20 c 0.99549,-1.1 2.03498,-2 2.30998,-2 0.275,0 -0.31449,0.9 -1.30998,2 -0.99549,1.1 -2.03498,2 -2.30998,2 -0.275,0 0.31449,-0.9 1.30998,-2 z"
         id="path14" />
      <path
         style="fill:#547880"
         d="m 209.43317,469.68644 c -0.875,-2.28022 22.3922,-48.05578 23.86307,-46.94787 2.8289,2.13084 17.31646,13.68853 18.51306,14.7691 1.04385,0.94264 -2.67163,4.40698 -18.32604,17.08734 -10.79944,8.74775 -20.50313,16.04905 -21.56377,16.22513 -1.06064,0.17607 -2.17948,-0.33409 -2.48632,-1.1337 z M 410.36523,279.5 c 0.003,-5.5 0.17053,-7.62242 0.37317,-4.71648 0.20265,2.90594 0.20052,7.40594 -0.005,10 -0.20525,2.59406 -0.37104,0.21648 -0.36844,-5.28352 z m 0.005,-117.5 c 0,-5.775 0.16528,-8.1375 0.36728,-5.25 0.202,2.8875 0.202,7.6125 0,10.5 -0.202,2.8875 -0.36728,0.525 -0.36728,-5.25 z"
         id="path13" />
      <path
         style="fill:#0c7eaa"
         d="m 58.269925,496.29688 c -1.226541,-0.23692 -3.139041,-1.58632 -4.25,-2.99868 C 52.008328,490.74087 52,489.88791 52,286.41219 52,138.80144 52.30815,81.417791 53.110272,79.657325 54.656372,76.264004 58.031731,75 65.547053,75 H 72 v 191.18428 191.18427 l 2.121149,4.38171 c 1.277364,2.63868 3.734179,5.4494 6.17607,7.06572 l 4.054922,2.68402 54.823929,0.27476 C 190.53498,472.03215 194,472.15969 194,473.79263 c 0,3.00928 4.90314,9.11731 8.9942,11.20441 4.76634,2.4316 11.92529,2.59998 16.30546,0.38351 1.76019,-0.8907 6.42516,-4.2657 10.3666,-7.5 L 236.83253,472 h 65.11585 c 55.61854,0 65.63947,-0.21878 68.70586,-1.5 1.97451,-0.825 3.76005,-1.5 3.96788,-1.5 1.15347,0 0.21697,21.44934 -1.07109,24.53212 L 372.10205,497 216.30103,496.86382 c -85.69057,-0.0749 -156.804564,-0.33003 -158.031105,-0.56694 z"
         id="path12" />
      <path
         style="fill:#5f5e5f"
         d="m 209.55764,471.09326 c -0.30822,-0.49871 0.34022,-0.67122 1.44098,-0.38337 2.33499,0.61061 2.63015,1.29011 0.5604,1.29011 -0.79254,0 -1.69316,-0.40803 -2.00138,-0.90674 z M 220,465.62244 c 0,-0.20765 0.7875,-0.99515 1.75,-1.75 1.58606,-1.24387 1.62143,-1.2085 0.37756,0.37756 C 220.82119,465.91575 220,466.44548 220,465.62244 Z m 5,-4 c 0,-0.20765 0.7875,-0.99515 1.75,-1.75 1.58606,-1.24387 1.62143,-1.2085 0.37756,0.37756 C 225.82119,461.91575 225,462.44548 225,461.62244 Z m 5,-4 c 0,-0.20765 0.7875,-0.99515 1.75,-1.75 1.58606,-1.24387 1.62143,-1.2085 0.37756,0.37756 C 230.82119,457.91575 230,458.44548 230,457.62244 Z M 367.46784,396.5 c 1.4e-4,-31.35 0.12689,-44.03046 0.28166,-28.1788 0.15477,15.85166 0.15466,41.50166 -2.6e-4,57 -0.15491,15.49834 -0.28154,2.5288 -0.2814,-28.8212 z M 241,448.62244 c 0,-0.20765 0.7875,-0.99515 1.75,-1.75 1.58606,-1.24387 1.62143,-1.2085 0.37756,0.37756 C 241.82119,448.91575 241,449.44548 241,448.62244 Z m 5,-4 c 0,-0.20765 0.7875,-0.99515 1.75,-1.75 1.58606,-1.24387 1.62143,-1.2085 0.37756,0.37756 C 246.82119,444.91575 246,445.44548 246,444.62244 Z m -75,-86 c 0,-0.20765 0.7875,-0.99515 1.75,-1.75 1.58606,-1.24387 1.62143,-1.2085 0.37756,0.37756 C 171.82119,358.91575 171,359.44548 171,358.62244 Z m -24.75,-59.31177 c 0.9625,-0.25152 2.5375,-0.25152 3.5,0 0.9625,0.25153 0.175,0.45733 -1.75,0.45733 -1.925,0 -2.7125,-0.2058 -1.75,-0.45733 z M 132.87244,291.25 c -1.24387,-1.58606 -1.2085,-1.62143 0.37756,-0.37756 0.9625,0.75485 1.75,1.54235 1.75,1.75 0,0.82304 -0.82119,0.29331 -2.12756,-1.37244 z m 148.20651,-1.83333 c 0.048,-1.16495 0.28494,-1.4019 0.60416,-0.60417 0.28887,0.72187 0.25335,1.58438 -0.0789,1.91667 -0.33229,0.33229 -0.56864,-0.25834 -0.52522,-1.3125 z M 123.87244,283.25 c -1.24387,-1.58606 -1.2085,-1.62143 0.37756,-0.37756 0.9625,0.75485 1.75,1.54235 1.75,1.75 0,0.82304 -0.82119,0.29331 -2.12756,-1.37244 z m 21,-1 c -1.24387,-1.58606 -1.2085,-1.62143 0.37756,-0.37756 0.9625,0.75485 1.75,1.54235 1.75,1.75 0,0.82304 -0.82119,0.29331 -2.12756,-1.37244 z m -9,-8 c -1.24387,-1.58606 -1.2085,-1.62143 0.37756,-0.37756 0.9625,0.75485 1.75,1.54235 1.75,1.75 0,0.82304 -0.82119,0.29331 -2.12756,-1.37244 z M 247.25,263.25071 c 14.7125,-0.15586 38.7875,-0.15586 53.5,0 14.7125,0.15585 2.675,0.28337 -26.75,0.28337 -29.425,0 -41.4625,-0.12752 -26.75,-0.28337 z M 367.24165,133.25 367,75 h -24.43963 -24.43964 l -0.41521,3.508654 -0.41521,3.508653 0.10485,-3.758653 L 317.5,74.5 342.27466,74.232477 c 19.27821,-0.208172 24.88224,0.01369 25.25958,1 0.26671,0.697137 0.36435,27.142523 0.21699,58.767523 l -0.26794,57.5 z m -119.92086,56.00053 c 15.30144,-0.15533 40.05144,-0.1552 55,2.8e-4 14.94857,0.15548 2.42921,0.28257 -27.82079,0.28242 -30.25,-1.5e-4 -42.48064,-0.12736 -27.17921,-0.2827 z M 136.87244,185.25 c -1.24387,-1.58606 -1.2085,-1.62143 0.37756,-0.37756 0.9625,0.75485 1.75,1.54235 1.75,1.75 0,0.82304 -0.82119,0.29331 -2.12756,-1.37244 z m 197.20651,-2.83333 c 0.048,-1.16495 0.28494,-1.4019 0.60416,-0.60417 0.28887,0.72187 0.25335,1.58437 -0.0789,1.91667 -0.33229,0.33229 -0.56864,-0.25834 -0.52522,-1.3125 z M 460.19495,177.5 c 0.0204,-1.65 0.2445,-2.20394 0.49804,-1.23097 0.25354,0.97297 0.23687,2.32297 -0.0371,3 -0.27393,0.67703 -0.48137,-0.11903 -0.46099,-1.76903 z m -332.32251,-0.25 c -1.24387,-1.58606 -1.2085,-1.62143 0.37756,-0.37756 0.9625,0.75485 1.75,1.54235 1.75,1.75 0,0.82304 -0.82119,0.29331 -2.12756,-1.37244 z m 11.53255,-9.5 -1.90499,-2.25 2.25,1.90499 c 2.11444,1.79022 2.70524,2.59501 1.90499,2.59501 -0.18976,0 -1.20226,-1.0125 -2.25,-2.25 z m 316,-1 -1.90499,-2.25 2.25,1.90499 c 2.11444,1.79022 2.70524,2.59501 1.90499,2.59501 -0.18976,0 -1.20226,-1.0125 -2.25,-2.25 z m 10.51932,-10.5 -2.42431,-2.75 2.75,2.42431 c 2.57029,2.26589 3.20859,3.07569 2.42431,3.07569 -0.17912,0 -1.41662,-1.2375 -2.75,-2.75 z m -131.84536,-7.83333 c 0.048,-1.16495 0.28494,-1.4019 0.60416,-0.60417 0.28887,0.72187 0.25335,1.58437 -0.0789,1.91667 -0.33229,0.33229 -0.56864,-0.25834 -0.52522,-1.3125 z m 108.68271,-1.12393 c 1.24391,-0.23919 3.04391,-0.23011 4,0.0202 0.95609,0.25029 -0.0617,0.446 -2.26166,0.4349 -2.2,-0.0111 -2.98225,-0.21589 -1.73834,-0.45508 z M 246.75,141.25068 c 14.9875,-0.15555 39.5125,-0.15555 54.5,0 14.9875,0.15556 2.725,0.28283 -27.25,0.28283 -29.975,0 -42.2375,-0.12727 -27.25,-0.28283 z M 191.32369,83.250309 c 20.25304,-0.151306 53.10304,-0.151232 73,1.64e-4 19.89697,0.151396 3.32631,0.275192 -36.82369,0.275102 -40.15,-9e-5 -56.42934,-0.12396 -36.17631,-0.275266 z M 99.25,74.252791 c 7.0125,-0.1719 18.4875,-0.1719 25.5,0 7.0125,0.1719 1.275,0.312545 -12.75,0.312545 -14.025,0 -19.7625,-0.140645 -12.75,-0.312545 z M 410.40499,66.75 408.5,64.5 l 2.25,1.904988 C 412.86444,68.195206 413.45524,69 412.65499,69 c -0.18976,0 -1.20226,-1.0125 -2.25,-2.25 z M 155,56.622445 c 0,-0.207656 0.7875,-0.995156 1.75,-1.75 1.58606,-1.243871 1.62143,-1.208501 0.37756,0.377555 C 155.82119,56.915748 155,57.445479 155,56.622445 Z m 17.25,-6.357484 c 2.6125,-0.205999 6.8875,-0.205999 9.5,0 2.6125,0.205998 0.475,0.374543 -4.75,0.374543 -5.225,0 -7.3625,-0.168545 -4.75,-0.374543 z m 97.5625,0.05192 c 0.72187,-0.288871 1.58438,-0.253344 1.91667,0.07895 0.33229,0.332292 -0.25834,0.568641 -1.3125,0.52522 -1.16495,-0.04798 -1.4019,-0.284941 -0.60417,-0.604167 z M 145.5,45 c 0.99549,-1.1 2.03498,-2 2.30998,-2 0.275,0 -0.31449,0.9 -1.30998,2 -0.99549,1.1 -2.03498,2 -2.30998,2 -0.275,0 0.31449,-0.9 1.30998,-2 z M 252.15789,32 c 0,-1.375 0.22698,-1.9375 0.50439,-1.25 0.27741,0.6875 0.27741,1.8125 0,2.5 -0.27741,0.6875 -0.50439,0.125 -0.50439,-1.25 z m -65.07894,-4.583333 c 0.048,-1.164943 0.28494,-1.4019 0.60416,-0.604167 0.28887,0.721875 0.25335,1.584375 -0.0789,1.916667 -0.3323,0.332291 -0.56864,-0.258334 -0.52522,-1.3125 z"
         id="path11" />
      <path
         style="fill:#046f93"
         d="m 57.8125,496.31689 c 0.721875,-0.28887 1.584375,-0.25335 1.916667,0.0789 0.332291,0.33229 -0.258334,0.56864 -1.3125,0.52522 -1.164943,-0.048 -1.4019,-0.28494 -0.604167,-0.60416 z m 315.79126,-2.91097 c 1.06782,-2.55566 1.45194,-6.7201 1.32949,-14.41357 -0.1586,-9.96416 0.005,-11.00419 2.06483,-13.15592 5.04754,-5.27182 5.00192,-4.65041 5.00192,-68.13 v -59.3578 l -2.31445,-2.17432 C 378.4126,334.97844 376.8376,334 376.18555,334 375.35027,334 375,331.03614 375,323.96833 v -10.03167 l 16.14018,-20.21833 c 8.8771,-11.12008 16.7521,-20.87726 17.5,-21.68262 1.1536,-1.24222 1.35982,0.009 1.35982,8.25 0,7.96826 -0.26961,9.71429 -1.5,9.71429 -0.825,0 -2.4,0.9 -3.5,2 -1.97295,1.97295 -2,3.33333 -2,100.57692 v 98.57693 l -2.92308,2.92307 C 397.1573,496.99654 397.13903,497 384.62795,497 h -12.5259 z M 53.872445,494.25 c -1.243871,-1.58606 -1.208501,-1.62143 0.377555,-0.37756 0.9625,0.75485 1.75,1.54235 1.75,1.75 0,0.82304 -0.821186,0.29331 -2.127555,-1.37244 z M 51.490418,286 c 0,-111.925 0.116788,-157.7125 0.259529,-101.75 0.142741,55.9625 0.142741,147.5375 0,203.5 C 51.607206,443.7125 51.490418,397.925 51.490418,286 Z M 206.8125,486.31689 c 0.72187,-0.28887 1.58437,-0.25335 1.91667,0.0789 0.33229,0.33229 -0.25834,0.56864 -1.3125,0.52522 -1.16495,-0.048 -1.4019,-0.28494 -0.60417,-0.60416 z M 198.40499,481.75 196.5,479.5 l 2.25,1.90499 c 2.11444,1.79022 2.70524,2.59501 1.90499,2.59501 -0.18976,0 -1.20226,-1.0125 -2.25,-2.25 z M 227.5,479 c 0.99549,-1.1 2.03498,-2 2.30998,-2 0.275,0 -0.31449,0.9 -1.30998,2 -0.99549,1.1 -2.03498,2 -2.30998,2 -0.275,0 0.31449,-0.9 1.30998,-2 z m 4.5,-3.37756 c 0,-0.20765 0.7875,-0.99515 1.75,-1.75 1.58606,-1.24387 1.62143,-1.2085 0.37756,0.37756 C 232.82119,475.91575 232,476.44548 232,475.62244 Z m -119.25,-4.37176 c 14.9875,-0.15555 39.5125,-0.15555 54.5,0 14.9875,0.15556 2.725,0.28283 -27.25,0.28283 -29.975,0 -42.2375,-0.12727 -27.25,-0.28283 z m 157.07274,-3e-4 c 18.32751,-0.15264 48.02751,-0.15255 66,1.9e-4 17.97249,0.15275 2.97726,0.27763 -33.32274,0.27752 -36.3,-1.1e-4 -51.00477,-0.12508 -32.67726,-0.27771 z M 76.872445,466.25 c -1.243871,-1.58606 -1.208501,-1.62143 0.377555,-0.37756 0.9625,0.75485 1.75,1.54235 1.75,1.75 0,0.82304 -0.821186,0.29331 -2.127555,-1.37244 z M 375,206.60212 c 0,-9.31077 0.0861,-9.68437 2.4392,-10.579 1.34156,-0.51006 2.91656,-1.81934 3.5,-2.90951 C 381.652,191.78173 382,172.08265 382,133.06574 V 75 l 7.75,0.0318 C 403.29143,75.08737 403,74.219727 403,114.47971 v 32.6112 l 2.45455,2.45454 c 1.35,1.35 2.925,2.45455 3.5,2.45455 0.65937,0 1.04488,3.78526 1.04392,10.25 l -0.002,10.25 L 392.498,194.37687 375,216.25373 Z M 52,80.059017 c 0,-0.517541 0.444846,-1.215913 0.988546,-1.551938 0.56686,-0.350339 0.734507,0.05106 0.393011,0.940983 C 52.716766,81.180479 52,81.497449 52,80.059017 Z m 3.733333,-4.183105 c 0.678334,-0.683418 1.485241,-0.990671 1.793128,-0.682784 0.307888,0.307887 -0.247112,0.867048 -1.233333,1.242579 -1.425198,0.542685 -1.540062,0.427821 -0.559795,-0.559795 z M 62.75,74.276604 c 1.7875,-0.221826 4.7125,-0.221826 6.5,0 1.7875,0.221827 0.325,0.403322 -3.25,0.403322 -3.575,0 -5.0375,-0.181495 -3.25,-0.403322 z"
         id="path10" />
      <path
         style="fill:#000000"
         d="M 55.5,511.06493 C 48.221472,509.29298 41.935151,504.16256 38.87884,497.5 37.117826,493.6611 37.043433,485.14288 37.031731,286 l -0.01219,-207.5 2.357886,-5 C 42.187225,67.541694 44.952255,64.825816 51,62.08403 55.292774,60.137871 57.393318,60.042913 96.614142,60.021962 L 137.72828,60 l 1.79165,-4.69135 c 2.31581,-6.063875 8.57463,-12.803845 14.93992,-16.088436 4.37737,-2.25879 6.68391,-2.674399 17.54015,-3.160505 6.875,-0.30784 13.02034,-0.897712 13.65632,-1.310826 0.63597,-0.413114 1.46325,-3.113114 1.83841,-6 0.81094,-6.240423 4.13782,-14.010092 7.90718,-18.466617 1.49687,-1.7697537 5.72183,-4.6947537 9.38881,-6.5 L 211.45795,0.5 h 16.02102 c 14.25569,0 16.53037,0.2355098 20.64343,2.1373282 10.07942,4.6605654 17.42127,14.4233798 18.5679,24.6906238 C 267.59046,35.388281 268.56271,36 280.47349,36 c 6.18015,0 12.16867,0.595471 15.27968,1.519339 7.7412,2.298889 14.47148,8.160269 18.30027,15.937643 L 317.27455,60 l 40.11273,0.0056 c 25.19342,0.0035 41.5338,0.400188 43.9335,1.066547 4.71771,1.310033 11.10519,6.948458 14.00164,12.359662 2.09168,3.907739 2.18989,5.385444 2.4896,37.461381 0.33302,35.64136 0.0803,37.9236 -4.42666,39.97711 -3.65169,1.66382 -5.20097,1.40502 -7.93081,-1.32483 L 403,147.09091 v -32.6112 c 0,-40.259983 0.29143,-39.392337 -13.25,-39.447907 L 382,75 v 58.38922 c 0,55.16312 -0.10145,58.5145 -1.83621,60.65683 -2.21807,2.7392 -7.43076,2.92731 -10.25643,0.37011 -1.80912,-1.63723 -1.90287,-4.2895 -2.14949,-60.81403 L 367.5,74.5 h -25 -25 l -0.59179,6.184075 c -0.67053,7.00676 -2.26599,9.961419 -7.55938,13.999341 L 305.65652,97.5 228.76365,97.768215 c -74.104,0.258487 -77.0511,0.198221 -81.25558,-1.661622 -6.07704,-2.688163 -9.76217,-8.471336 -10.32099,-16.197025 L 136.75962,74 H 111.87981 87 v 190.3 c 0,146.67778 0.275074,190.57507 1.2,191.5 0.90386,0.90386 14.59685,1.2 55.48581,1.2 h 54.28582 L 210.33975,431.75 222.70788,406.5 311.97681,295 C 436.9863,138.85881 424.15409,154.22834 432.85209,150.22393 c 4.6723,-2.15106 6.38696,-2.40719 13.5,-2.01663 9.98971,0.54851 14.5841,2.70338 21.01566,9.85683 7.90658,8.79402 9.91317,22.5844 4.75686,32.69162 -2.14939,4.21316 -47.96059,61.86637 -148.84412,187.31976 -43.3698,53.93237 -55.51789,68.42503 -60.70794,72.42449 -3.56864,2.75 -6.50737,5.3375 -6.5305,5.75 -0.063,1.12367 108.17378,0.89892 109.95795,-0.22833 1.29623,-0.81895 1.56792,-8.95649 2,-59.90213 0.275,-32.42493 0.725,-59.15562 1,-59.40153 3.59759,-3.21699 8.03683,-3.37216 10.84857,-0.3792 l 2.1972,2.33881 -0.27288,60.48519 -0.27289,60.48519 -2.48282,3.62271 c -1.36556,1.99249 -4.12683,4.5467 -6.13616,5.676 C 369.29882,470.96003 367.94486,471 303.33585,471 h -65.89184 l -7.47201,6.13116 c -7.65185,6.27874 -13.92514,9.81224 -17.472,9.8413 -7.42795,0.0608 -16.57848,-6.50032 -17.9828,-12.89415 l -0.66537,-3.0294 -55.25449,-0.27445 L 83.342847,470.5 79.670372,467.69831 c -2.019861,-1.54093 -4.459502,-4.24093 -5.421423,-6 -1.645523,-3.00917 -1.764329,-14.57497 -2.009031,-195.57917 L 71.979837,73.73828 64.407546,74.22424 c -6.519602,0.418402 -7.943141,0.856801 -10.239919,3.153521 L 51.5,80.045323 51.213471,282.77266 c -0.157591,111.50004 -0.01527,204.24012 0.316273,206.08907 0.331542,1.84895 1.677525,4.43645 2.991075,5.75 L 56.909091,497 H 227.03147 397.15385 l 2.92307,-2.92308 L 403,491.15385 v -98.57693 c 0,-97.24359 0.027,-98.60397 2,-100.57692 2.69532,-2.69532 8.10915,-2.64179 10.59501,0.10477 1.84203,2.0352 1.91374,5.33019 2.16963,99.69371 0.29957,110.46614 0.6608,104.82871 -7.22227,112.71178 -8.07553,8.07554 6.15574,7.50253 -183.47387,7.38738 C 134.35582,511.84134 57.15,511.46662 55.5,511.06493 Z M 233.06419,455.5 C 243.9906,446.7 252.94605,439.18461 252.9652,438.79914 253.00872,437.92268 233.42203,422 232.30036,422 231.1706,422 209,466.56802 209,468.8391 c 0,2.27894 0.985,3.31503 2.80023,2.94547 C 212.569,471.62806 222.13778,464.3 233.06419,455.5 Z M 345.33564,327.31946 c 43.23993,-53.9993 78.74097,-98.60856 78.89121,-99.13168 0.36595,-1.27427 -23.50572,-20.33425 -24.31157,-19.41121 -0.76451,0.87571 -157.89325,197.26627 -159.06407,198.80949 -0.52543,0.69255 3.5845,4.5995 11.34347,10.78322 9.69441,7.72621 12.40683,9.43634 13.34518,8.41394 0.64775,-0.70577 36.55585,-45.46446 79.79578,-99.46376 z M 447.02631,200.49581 c 13.05774,-16.31602 14.97433,-20.2126 13.06934,-26.5709 -2.89829,-9.67364 -12.39088,-14.33535 -21.46796,-10.54271 -4.37997,1.83007 -29.34717,32.29832 -27.7641,33.88139 3.13309,3.13309 22.75033,18.57006 23.39898,18.41285 0.41941,-0.10165 6.16309,-6.93293 12.76374,-15.18063 z M 301.42857,82.428571 c 2.59619,-2.596191 2.16621,-16.827449 -0.67857,-22.45861 -3.71741,-7.358512 -6.60989,-8.617502 -21.07898,-9.174894 -14.0598,-0.541626 -18.02674,-1.918182 -22.90812,-7.949284 -2.08821,-2.580053 -3.12472,-5.350815 -3.90161,-10.429614 -1.29283,-8.451763 -3.51075,-12.288843 -8.8319,-15.279494 -3.79334,-2.131978 -5.01316,-2.265079 -17.9801,-1.96191 -12.1873,0.284942 -14.2523,0.580668 -16.6682,2.387024 -4.5933,3.434399 -6.4351,6.745662 -7.34921,13.212659 -1.12831,7.98242 -4.44929,13.813943 -9.52113,16.718754 -3.44767,1.974592 -5.79612,2.36028 -16.72772,2.7472 -11.57239,0.4096 -13.0659,0.68102 -16.59371,3.015617 C 153.49883,57.021802 152,61.002827 152,72.351439 c 0,8.039494 0.27667,9.710325 1.75,10.568462 1.14348,0.666015 26.76592,1.029821 73.92857,1.04969 64.3099,0.02709 72.34988,-0.140903 73.75,-1.54102 z M 144.29321,407.29993 c -2.04632,-0.3966 -20.22475,-15.44248 -23.04321,-19.07233 -1.96231,-2.52723 -1.47228,-6.09623 1.20455,-8.77305 4.07446,-4.07447 6.68851,-3.25084 16.01327,5.04545 4.63636,4.125 8.7903,7.48823 9.23097,7.47385 0.44066,-0.0144 5.95496,-7.4785 12.25399,-16.58693 12.57256,-18.17997 15.09519,-20.82166 19.00394,-19.9008 3.18686,0.75078 6.04328,4.04182 6.04328,6.96278 0,1.2389 -6.18771,11.11637 -13.94347,22.25802 -12.33031,17.71328 -14.41512,20.2194 -18.02024,21.66188 -4.10868,1.64397 -4.72594,1.70971 -8.74308,0.93113 z M 141.5,297.81579 C 139.32751,296.59551 123.264,282.44073 121.2818,280 c -3.14225,-3.86915 0.62401,-11 5.80981,-11 2.25072,0 4.93694,1.77095 11.37621,7.5 4.63636,4.125 8.7903,7.47974 9.23097,7.45497 0.44066,-0.0248 6.20121,-7.87893 12.80121,-17.4537 7.62227,-11.05781 12.93615,-17.80685 14.56613,-18.50013 4.99315,-2.12375 10.68949,2.26575 9.69455,7.47045 -0.65268,3.41428 -26.80554,40.1237 -29.87854,41.93896 -3.09727,1.8296 -10.44992,2.05226 -13.38214,0.40524 z m 77.7588,-1.49198 C 216.51843,295.76062 214,292.36437 214,289.23204 c 0,-1.27762 1.10455,-3.42749 2.45455,-4.77749 L 218.90909,282 h 28.1112 c 32.60903,0 33.92828,0.29501 33.9644,7.59501 0.009,1.88998 -0.80355,3.83672 -2.08785,5 -1.95287,1.76886 -4.0788,1.91515 -29.75,2.0472 -15.20576,0.0782 -28.65538,-0.0651 -29.88804,-0.3184 z m -3.08449,-35.63826 c -2.8208,-3.00261 -2.76512,-6.78189 0.14014,-9.51124 L 218.6289,249 h 55.68555 c 54.35222,0 55.73344,0.0479 57.68555,2 1.11111,1.11111 2,3.33333 2,5 0,1.66667 -0.88889,3.88889 -2,5 -1.95223,1.95223 -3.33333,2 -57.82569,2 h -55.82568 z m -73.91312,-71.94343 c -5.19509,-3.01779 -21.31826,-18.12131 -21.92489,-20.53834 -0.85706,-3.41478 1.4399,-7.30296 5.01612,-8.49108 3.22257,-1.07062 5.74714,0.46456 16.53364,10.05404 l 5.92417,5.26675 10.26628,-14.76675 c 15.69569,-22.57627 15.56088,-22.42525 19.70004,-22.0696 4.83707,0.41562 8.09756,4.64873 6.61201,8.5844 -1.6138,4.27546 -26.38535,39.17025 -29.0427,40.91141 -3.19472,2.09326 -10.30571,2.66344 -13.08467,1.04917 z M 216,187 c -2.57062,-2.57062 -2.54374,-6.03903 0.0726,-9.36514 L 218.14516,175 h 55.92742 c 54.59409,0 55.9751,0.0477 57.92742,2 2.55355,2.55355 2.64547,8.10588 0.17126,10.34501 -1.65598,1.49864 -7.13538,1.65499 -58,1.65499 -54.83793,0 -56.21873,-0.0475 -58.17126,-2 z m 0.0726,-33.63486 C 213.45626,150.03903 213.42938,146.57062 216,144 c 1.95267,-1.95267 3.33333,-2 58.34501,-2 53.31614,0 56.43398,0.0983 58,1.82874 2.27705,2.51611 2.10033,7.72592 -0.34501,10.17126 -1.95232,1.95232 -3.33333,2 -57.92742,2 h -55.92742 z"
         id="path9" />
    </g>
  </g>
</svg>
